<svg width="540" height="258" viewBox="0 0 540 258" fill="none" xmlns="http://www.w3.org/2000/svg">
<rect x="6" y="6" width="528" height="246" rx="42" fill="black"/>
<g clip-path="url(#clip0_16_316)">
<path d="M104.792 163.838C109.21 163.102 112.939 160.148 114.667 156.017" stroke="white" stroke-width="4.16667" stroke-linecap="round" stroke-linejoin="round"/>
<path d="M90.0879 114.608C98.6115 116.103 105.934 121.523 109.855 129.238" stroke="white" stroke-width="4.16667" stroke-linecap="round" stroke-linejoin="round"/>
<path d="M104.084 121.625L111.584 116" stroke="white" stroke-width="4.16667" stroke-linecap="round" stroke-linejoin="round"/>
<path d="M121.667 81.8041C121.587 85.9811 120.833 90.1176 119.434 94.0541" stroke="white" stroke-width="4.16667" stroke-linecap="round" stroke-linejoin="round"/>
<path d="M120.447 94.8038C122.074 96.4309 122.074 99.0691 120.447 100.696C118.82 102.323 116.182 102.323 114.554 100.696C112.927 99.0691 112.927 96.4309 114.554 94.8038C116.182 93.1766 118.82 93.1766 120.447 94.8038Z" stroke="white" stroke-width="4.16667" stroke-linecap="round" stroke-linejoin="round"/>
<path d="M145.447 103.137C147.074 104.764 147.074 107.403 145.447 109.03C143.82 110.657 141.182 110.657 139.554 109.03C137.927 107.402 137.927 104.764 139.554 103.137C141.182 101.51 143.82 101.51 145.447 103.137Z" stroke="white" stroke-width="4.16667" stroke-linecap="round" stroke-linejoin="round"/>
<path d="M160.03 119.804C161.657 121.431 161.657 124.069 160.03 125.696C158.403 127.323 155.765 127.323 154.137 125.696C152.51 124.069 152.51 121.431 154.137 119.804C155.765 118.177 158.403 118.177 160.03 119.804Z" stroke="white" stroke-width="4.16667" stroke-linecap="round" stroke-linejoin="round"/>
<path d="M145.447 134.387C147.074 136.014 147.074 138.653 145.447 140.28C143.82 141.907 141.182 141.907 139.554 140.28C137.927 138.652 137.927 136.014 139.554 134.387C141.182 132.76 143.82 132.76 145.447 134.387Z" stroke="white" stroke-width="4.16667" stroke-linecap="round" stroke-linejoin="round"/>
<path d="M118.363 111.47C119.99 113.098 119.99 115.736 118.363 117.363C116.736 118.99 114.098 118.99 112.47 117.363C110.843 115.736 110.843 113.098 112.47 111.47C114.098 109.843 116.736 109.843 118.363 111.47Z" stroke="white" stroke-width="4.16667" stroke-linecap="round" stroke-linejoin="round"/>
<path d="M114.197 130.221C115.824 131.848 115.824 134.486 114.197 136.113C112.57 137.74 109.932 137.74 108.304 136.113C106.677 134.486 106.677 131.848 108.304 130.221C109.932 128.593 112.57 128.593 114.197 130.221Z" stroke="white" stroke-width="4.16667" stroke-linecap="round" stroke-linejoin="round"/>
<path d="M177.917 129C177.934 123.137 174.902 117.687 169.913 114.608C170.195 113.378 170.342 112.121 170.35 110.858C170.434 102.194 163.84 94.9233 155.209 94.1626C155.386 87.1186 149.82 81.2642 142.776 81.0865C142.72 81.0851 142.664 81.084 142.609 81.0834C137.213 81.3923 132.399 84.5741 130 89.4167C127.601 84.5741 122.787 81.3922 117.392 81.0834C110.346 81.1686 104.704 86.9493 104.789 93.9951C104.789 94.0509 104.79 94.1067 104.792 94.1625C96.1577 94.9236 89.5623 102.199 89.6502 110.867C89.6518 112.128 89.7915 113.385 90.0668 114.616C82.1185 119.553 79.6771 129.999 84.6138 137.947C85.9881 140.16 87.8541 142.026 90.0668 143.4C89.7915 144.631 89.6517 145.888 89.6502 147.15C89.5709 155.811 96.164 163.077 104.792 163.838C104.614 170.882 110.18 176.736 117.224 176.914C117.28 176.915 117.336 176.916 117.392 176.917C122.368 177.037 127.084 174.7 130 170.667C132.917 174.7 137.633 177.037 142.609 176.917C149.654 176.832 155.297 171.051 155.212 164.005C155.211 163.949 155.21 163.893 155.209 163.838C163.843 163.077 170.438 155.801 170.35 147.133C170.342 145.871 170.195 144.614 169.913 143.383C174.9 140.306 177.931 134.86 177.917 129Z" stroke="white" stroke-width="4.16667" stroke-linecap="round" stroke-linejoin="round"/>
<path d="M130 89.4167V137.333" stroke="white" stroke-width="4.16667" stroke-linecap="round" stroke-linejoin="round"/>
<path d="M130 153.833V170.667" stroke="white" stroke-width="4.16667" stroke-linecap="round" stroke-linejoin="round"/>
<path d="M168.221 102.596L156.667 108.379C153.292 110.069 149.326 110.109 145.917 108.487" stroke="white" stroke-width="4.16667" stroke-linecap="round" stroke-linejoin="round"/>
<path d="M142.5 133.167C143.736 128.011 147.761 123.986 152.917 122.75" stroke="white" stroke-width="4.16667" stroke-linecap="round" stroke-linejoin="round"/>
<path d="M155.208 163.838C154.058 159.833 152.096 156.754 148.75 156.083" stroke="white" stroke-width="4.16667" stroke-linecap="round" stroke-linejoin="round"/>
<path d="M118.363 148.971C119.99 150.598 119.99 153.236 118.363 154.863C116.736 156.49 114.098 156.49 112.47 154.863C110.843 153.236 110.843 150.598 112.47 148.971C114.098 147.343 116.736 147.343 118.363 148.971Z" stroke="white" stroke-width="4.16667" stroke-linecap="round" stroke-linejoin="round"/>
<path d="M147.53 153.137C149.157 154.764 149.157 157.403 147.53 159.03C145.903 160.657 143.265 160.657 141.637 159.03C140.01 157.402 140.01 154.764 141.637 153.137C143.265 151.51 145.903 151.51 147.53 153.137Z" stroke="white" stroke-width="4.16667" stroke-linecap="round" stroke-linejoin="round"/>
</g>
<path d="M222.878 163L243.778 93H256.378L277.278 163H265.778L261.078 146.2H239.078L234.378 163H222.878ZM249.778 108L241.478 137.7H258.678L250.378 108H249.778ZM289.539 163V153.6H304.739V102.4H289.739V93H330.339V102.4H315.339V153.6H330.539V163H289.539ZM352.8 132.5V123.5H387.2V132.5H352.8ZM407.961 163V93H452.661V102.5H418.561V122.9H449.661V132.3H418.561V153.5H452.661V163H407.961Z" fill="white"/>
<rect x="6" y="6" width="528" height="246" rx="42" stroke="#333333" stroke-width="12"/>
<defs>
<clipPath id="clip0_16_316">
<rect width="100" height="100" fill="white" transform="translate(80 79)"/>
</clipPath>
</defs>
</svg>
