<svg width="600" height="258" viewBox="0 0 600 258" fill="none" xmlns="http://www.w3.org/2000/svg">
<rect x="6" y="6" width="588" height="246" rx="42" fill="white"/>
<g clip-path="url(#clip0_16_308)">
<path d="M104.792 163.838C109.21 163.102 112.939 160.148 114.667 156.017" stroke="black" stroke-width="4.16667" stroke-linecap="round" stroke-linejoin="round"/>
<path d="M90.0879 114.608C98.6115 116.103 105.934 121.523 109.855 129.238" stroke="black" stroke-width="4.16667" stroke-linecap="round" stroke-linejoin="round"/>
<path d="M104.083 121.625L111.584 116" stroke="black" stroke-width="4.16667" stroke-linecap="round" stroke-linejoin="round"/>
<path d="M121.667 81.8041C121.587 85.9811 120.833 90.1176 119.434 94.0541" stroke="black" stroke-width="4.16667" stroke-linecap="round" stroke-linejoin="round"/>
<path d="M120.446 94.8038C122.074 96.4309 122.074 99.0691 120.446 100.696C118.819 102.323 116.181 102.323 114.554 100.696C112.927 99.0691 112.927 96.4309 114.554 94.8038C116.181 93.1766 118.819 93.1766 120.446 94.8038Z" stroke="black" stroke-width="4.16667" stroke-linecap="round" stroke-linejoin="round"/>
<path d="M145.446 103.137C147.074 104.764 147.074 107.403 145.446 109.03C143.819 110.657 141.181 110.657 139.554 109.03C137.927 107.402 137.927 104.764 139.554 103.137C141.181 101.51 143.819 101.51 145.446 103.137Z" stroke="black" stroke-width="4.16667" stroke-linecap="round" stroke-linejoin="round"/>
<path d="M160.03 119.804C161.657 121.431 161.657 124.069 160.03 125.696C158.403 127.323 155.765 127.323 154.137 125.696C152.51 124.069 152.51 121.431 154.137 119.804C155.765 118.177 158.403 118.177 160.03 119.804Z" stroke="black" stroke-width="4.16667" stroke-linecap="round" stroke-linejoin="round"/>
<path d="M145.446 134.387C147.074 136.014 147.074 138.653 145.446 140.28C143.819 141.907 141.181 141.907 139.554 140.28C137.927 138.652 137.927 136.014 139.554 134.387C141.181 132.76 143.819 132.76 145.446 134.387Z" stroke="black" stroke-width="4.16667" stroke-linecap="round" stroke-linejoin="round"/>
<path d="M118.363 111.47C119.991 113.098 119.991 115.736 118.363 117.363C116.736 118.99 114.098 118.99 112.471 117.363C110.844 115.736 110.844 113.098 112.471 111.47C114.098 109.843 116.736 109.843 118.363 111.47Z" stroke="black" stroke-width="4.16667" stroke-linecap="round" stroke-linejoin="round"/>
<path d="M114.196 130.221C115.824 131.848 115.824 134.486 114.196 136.113C112.569 137.74 109.931 137.74 108.304 136.113C106.677 134.486 106.677 131.848 108.304 130.221C109.931 128.593 112.569 128.593 114.196 130.221Z" stroke="black" stroke-width="4.16667" stroke-linecap="round" stroke-linejoin="round"/>
<path d="M177.917 129C177.934 123.137 174.902 117.687 169.913 114.608C170.195 113.378 170.342 112.121 170.35 110.858C170.434 102.194 163.84 94.9233 155.209 94.1626C155.386 87.1186 149.82 81.2642 142.776 81.0865C142.72 81.0851 142.664 81.084 142.609 81.0834C137.213 81.3923 132.399 84.5741 130 89.4167C127.601 84.5741 122.787 81.3922 117.392 81.0834C110.346 81.1686 104.704 86.9493 104.789 93.9951C104.789 94.0509 104.79 94.1067 104.792 94.1625C96.1577 94.9236 89.5623 102.199 89.6502 110.867C89.6518 112.128 89.7915 113.385 90.0668 114.616C82.1185 119.553 79.6771 129.999 84.6138 137.947C85.9881 140.16 87.8541 142.026 90.0668 143.4C89.7915 144.631 89.6517 145.888 89.6502 147.15C89.5709 155.811 96.164 163.077 104.792 163.838C104.614 170.882 110.18 176.736 117.224 176.914C117.28 176.915 117.336 176.916 117.392 176.917C122.368 177.037 127.084 174.7 130 170.667C132.917 174.7 137.633 177.037 142.609 176.917C149.654 176.832 155.297 171.051 155.212 164.005C155.211 163.949 155.21 163.893 155.209 163.838C163.843 163.077 170.438 155.801 170.35 147.133C170.342 145.871 170.195 144.614 169.913 143.383C174.9 140.306 177.931 134.86 177.917 129Z" stroke="black" stroke-width="4.16667" stroke-linecap="round" stroke-linejoin="round"/>
<path d="M130 89.4167V137.333" stroke="black" stroke-width="4.16667" stroke-linecap="round" stroke-linejoin="round"/>
<path d="M130 153.833V170.667" stroke="black" stroke-width="4.16667" stroke-linecap="round" stroke-linejoin="round"/>
<path d="M168.221 102.596L156.667 108.379C153.292 110.069 149.326 110.109 145.917 108.487" stroke="black" stroke-width="4.16667" stroke-linecap="round" stroke-linejoin="round"/>
<path d="M142.5 133.167C143.736 128.011 147.761 123.986 152.917 122.75" stroke="black" stroke-width="4.16667" stroke-linecap="round" stroke-linejoin="round"/>
<path d="M155.209 163.838C154.059 159.833 152.096 156.754 148.75 156.083" stroke="black" stroke-width="4.16667" stroke-linecap="round" stroke-linejoin="round"/>
<path d="M118.363 148.971C119.991 150.598 119.991 153.236 118.363 154.863C116.736 156.49 114.098 156.49 112.471 154.863C110.844 153.236 110.844 150.598 112.471 148.971C114.098 147.343 116.736 147.343 118.363 148.971Z" stroke="black" stroke-width="4.16667" stroke-linecap="round" stroke-linejoin="round"/>
<path d="M147.53 153.137C149.157 154.764 149.157 157.403 147.53 159.03C145.903 160.657 143.265 160.657 141.637 159.03C140.01 157.402 140.01 154.764 141.637 153.137C143.265 151.51 145.903 151.51 147.53 153.137Z" stroke="black" stroke-width="4.16667" stroke-linecap="round" stroke-linejoin="round"/>
<path d="M170.92 168.92C183.027 156.814 183.027 137.186 170.92 125.08C158.814 112.973 139.186 112.973 127.08 125.08C114.973 137.186 114.973 156.814 127.08 168.92C139.186 181.027 158.814 181.027 170.92 168.92Z" fill="white" stroke="white" stroke-width="12" stroke-linecap="round" stroke-linejoin="round"/>
<path d="M166.678 129.322C176.441 139.085 176.441 154.915 166.678 164.678C156.915 174.441 141.085 174.441 131.322 164.678C121.559 154.915 121.559 139.085 131.322 129.322C141.085 119.559 156.915 119.559 166.678 129.322Z" fill="white" stroke="black" stroke-width="4.16667" stroke-linecap="round" stroke-linejoin="round"/>
<path d="M157.834 138.167L140.167 155.833L157.834 138.167Z" fill="white"/>
<path d="M157.834 138.167L140.167 155.833" stroke="black" stroke-width="4.16667" stroke-linecap="round" stroke-linejoin="round"/>
<path d="M157.834 155.833L140.167 138.167L157.834 155.833Z" fill="white"/>
<path d="M157.834 155.833L140.167 138.167" stroke="black" stroke-width="4.16667" stroke-linecap="round" stroke-linejoin="round"/>
</g>
<path d="M225.198 163V93H235.598L264.898 144.3V93H274.998V163H264.598L235.298 111.7V163H225.198ZM310.059 164.2C304.392 164.2 299.492 162.733 295.359 159.8C291.225 156.867 288.059 152.7 285.859 147.3C283.659 141.9 282.559 135.467 282.559 128C282.559 120.533 283.659 114.1 285.859 108.7C288.059 103.3 291.225 99.1333 295.359 96.2C299.492 93.2667 304.392 91.8 310.059 91.8C315.792 91.8 320.692 93.2667 324.759 96.2C328.892 99.1333 332.059 103.3 334.259 108.7C336.459 114.1 337.559 120.533 337.559 128C337.559 135.467 336.459 141.9 334.259 147.3C332.059 152.7 328.892 156.867 324.759 159.8C320.692 162.733 315.792 164.2 310.059 164.2ZM310.059 154.2C315.059 154.2 319.092 151.967 322.159 147.5C325.225 142.967 326.759 136.467 326.759 128C326.759 119.533 325.225 113.067 322.159 108.6C319.092 104.067 315.059 101.8 310.059 101.8C304.992 101.8 300.925 104.067 297.859 108.6C294.859 113.067 293.359 119.533 293.359 128C293.359 136.467 294.859 142.967 297.859 147.5C300.925 151.967 304.992 154.2 310.059 154.2ZM352.82 132.5V123.5H387.22V132.5H352.82ZM402.78 163L423.68 93H436.28L457.18 163H445.68L440.98 146.2H418.98L414.28 163H402.78ZM429.68 108L421.38 137.7H438.58L430.28 108H429.68ZM469.441 163V153.6H484.641V102.4H469.641V93H510.241V102.4H495.241V153.6H510.441V163H469.441Z" fill="black"/>
<rect x="6" y="6" width="588" height="246" rx="42" stroke="#333333" stroke-width="12"/>
<defs>
<clipPath id="clip0_16_308">
<rect width="100" height="100" fill="white" transform="translate(80 79)"/>
</clipPath>
</defs>
</svg>
